TITLE ""
FILE "Step3_Track30.mp3" MP3
  TRACK 01 AUDIO
    TITLE "Step3_Track30_01"
    INDEX 01 00:00:00
  TRACK 02 AUDIO
    TITLE "Step3_Track30_02"
    INDEX 01 00:00:20
  TRACK 03 AUDIO
    TITLE "Step3_Track30_03"
    INDEX 01 00:01:49
  TRACK 04 AUDIO
    TITLE "Step3_Track30_04"
    INDEX 01 00:02:29
  TRACK 05 AUDIO
    TITLE "Step3_Track30_05"
    INDEX 01 00:03:26
  TRACK 06 AUDIO
    TITLE "Step3_Track30_06"
    INDEX 01 00:03:48
  TRACK 07 AUDIO
    TITLE "Step3_Track30_07"
    INDEX 01 00:05:60
  TRACK 08 AUDIO
    TITLE "Step3_Track30_08"
    INDEX 01 00:05:72
  TRACK 09 AUDIO
    TITLE "Step3_Track30_09"
    INDEX 01 00:06:64
  TRACK 10 AUDIO
    TITLE "Step3_Track30_10"
    INDEX 01 00:06:66
  TRACK 11 AUDIO
    TITLE "Step3_Track30_11"
    INDEX 01 00:09:13
  TRACK 12 AUDIO
    TITLE "Step3_Track30_12"
    INDEX 01 00:09:46
  TRACK 13 AUDIO
    TITLE "Step3_Track30_13"
    INDEX 01 00:10:42
  TRACK 14 AUDIO
    TITLE "Step3_Track30_14"
    INDEX 01 00:10:44
  TRACK 15 AUDIO
    TITLE "Step3_Track30_15"
    INDEX 01 00:12:17
  TRACK 16 AUDIO
    TITLE "Step3_Track30_16"
    INDEX 01 00:12:49
  TRACK 17 AUDIO
    TITLE "Step3_Track30_17"
    INDEX 01 00:13:46
  TRACK 18 AUDIO
    TITLE "Step3_Track30_18"
    INDEX 01 00:13:50
  TRACK 19 AUDIO
    TITLE "Step3_Track30_19"
    INDEX 01 00:15:67
  TRACK 20 AUDIO
    TITLE "Step3_Track30_20"
    INDEX 01 00:16:39
  TRACK 21 AUDIO
    TITLE "Step3_Track30_21"
    INDEX 01 00:17:30
  TRACK 22 AUDIO
    TITLE "Step3_Track30_22"
    INDEX 01 00:17:48
  TRACK 23 AUDIO
    TITLE "Step3_Track30_23"
    INDEX 01 00:19:51
  TRACK 24 AUDIO
    TITLE "Step3_Track30_24"
    INDEX 01 00:20:05
  TRACK 25 AUDIO
    TITLE "Step3_Track30_25"
    INDEX 01 00:21:05
  TRACK 26 AUDIO
    TITLE "Step3_Track30_26"
    INDEX 01 00:21:12
  TRACK 27 AUDIO
    TITLE "Step3_Track30_27"
    INDEX 01 00:23:31
  TRACK 28 AUDIO
    TITLE "Step3_Track30_28"
    INDEX 01 00:23:62
  TRACK 29 AUDIO
    TITLE "Step3_Track30_29"
    INDEX 01 00:24:68
  TRACK 30 AUDIO
    TITLE "Step3_Track30_30"
    INDEX 01 00:24:70
  TRACK 31 AUDIO
    TITLE "Step3_Track30_31"
    INDEX 01 00:26:72
  TRACK 32 AUDIO
    TITLE "Step3_Track30_32"
    INDEX 01 00:27:25
  TRACK 33 AUDIO
    TITLE "Step3_Track30_33"
    INDEX 01 00:28:14
  TRACK 34 AUDIO
    TITLE "Step3_Track30_34"
    INDEX 01 00:28:32
  TRACK 35 AUDIO
    TITLE "Step3_Track30_35"
    INDEX 01 00:30:27
  TRACK 36 AUDIO
    TITLE "Step3_Track30_36"
    INDEX 01 00:30:56
  TRACK 37 AUDIO
    TITLE "Step3_Track30_37"
    INDEX 01 00:31:60
  TRACK 38 AUDIO
    TITLE "Step3_Track30_38"
    INDEX 01 00:32:01
  TRACK 39 AUDIO
    TITLE "Step3_Track30_39"
    INDEX 01 00:34:27
  TRACK 40 AUDIO
    TITLE "Step3_Track30_40"
    INDEX 01 00:34:52
  TRACK 41 AUDIO
    TITLE "Step3_Track30_41"
    INDEX 01 00:35:48
  TRACK 42 AUDIO
    TITLE "Step3_Track30_42"
    INDEX 01 00:35:64
  TRACK 43 AUDIO
    TITLE "Step3_Track30_43"
    INDEX 01 00:37:29
